{
    "asset" : {
        "generator" : "Khronos glTF Blender I/O v1.0.5",
        "version" : "2.0"
    },
    "scene" : 0,
    "scenes" : [
        {
            "name" : "Scene",
            "nodes" : [
                9
            ]
        }
    ],
    "nodes" : [
        {
            "mesh" : 0,
            "name" : "Object001_Material #33_0"
        },
        {
            "children" : [
                0
            ],
            "name" : "Object001",
            "rotation" : [
                -0.7071068286895752,
                0,
                0,
                0.7071067094802856
            ]
        },
        {
            "mesh" : 1,
            "name" : "Object002_Material #34_0"
        },
        {
            "children" : [
                2
            ],
            "name" : "Object002",
            "rotation" : [
                -0.7071068286895752,
                0,
                0,
                0.7071067094802856
            ]
        },
        {
            "mesh" : 2,
            "name" : "Plane001__0"
        },
        {
            "children" : [
                4
            ],
            "name" : "Plane001",
            "rotation" : [
                -0.7071068286895752,
                0,
                0,
                0.7071067094802856
            ],
            "scale" : [
                0.9255837202072144,
                1,
                1
            ],
            "translation" : [
                0.5331230163574219,
                9.283050537109375,
                2.778158187866211
            ]
        },
        {
            "children" : [
                1,
                3,
                5
            ],
            "name" : "RootNode"
        },
        {
            "children" : [
                6
            ],
            "name" : "gmc.FBX",
            "rotation" : [
                0.7071068286895752,
                0,
                0,
                0.7071067094802856
            ]
        },
        {
            "children" : [
                7
            ],
            "name" : "RootNode (model correction matrix)"
        },
        {
            "children" : [
                8
            ],
            "name" : "RootNode (gltf orientation matrix)",
            "rotation" : [
                1,
                0,
                0,
                -1.3435885648505064e-07
            ]
        }
    ],
    "materials" : [
        {
            "doubleSided" : true,
            "emissiveFactor" : [
                1,
                1,
                1
            ],
            "emissiveTexture" : {
                "index" : 0,
                "texCoord" : 0
            },
            "name" : "Material_33",
            "normalTexture" : {
                "index" : 1,
                "texCoord" : 0
            },
            "occlusionTexture" : {
                "index" : 2,
                "texCoord" : 0
            },
            "pbrMetallicRoughness" : {
                "baseColorTexture" : {
                    "index" : 3,
                    "texCoord" : 0
                },
                "metallicRoughnessTexture" : {
                    "index" : 2,
                    "texCoord" : 0
                }
            }
        },
        {
            "alphaMode" : "BLEND",
            "doubleSided" : true,
            "name" : "Material_34",
            "normalTexture" : {
                "index" : 4,
                "texCoord" : 0
            },
            "occlusionTexture" : {
                "index" : 5,
                "texCoord" : 0
            },
            "pbrMetallicRoughness" : {
                "baseColorTexture" : {
                    "index" : 6,
                    "texCoord" : 0
                },
                "metallicRoughnessTexture" : {
                    "index" : 5,
                    "texCoord" : 0
                }
            }
        },
        {
            "alphaMode" : "BLEND",
            "doubleSided" : true,
            "name" : "RootNode",
            "pbrMetallicRoughness" : {
                "baseColorTexture" : {
                    "index" : 7,
                    "texCoord" : 0
                },
                "metallicFactor" : 0,
                "roughnessFactor" : 1
            }
        }
    ],
    "meshes" : [
        {
            "name" : "Object001_Material #33_0",
            "primitives" : [
                {
                    "attributes" : {
                        "POSITION" : 0,
                        "NORMAL" : 1,
                        "TEXCOORD_0" : 2
                    },
                    "indices" : 3,
                    "material" : 0
                }
            ]
        },
        {
            "name" : "Object002_Material #34_0",
            "primitives" : [
                {
                    "attributes" : {
                        "POSITION" : 4,
                        "NORMAL" : 5,
                        "TEXCOORD_0" : 6
                    },
                    "indices" : 7,
                    "material" : 1
                }
            ]
        },
        {
            "name" : "Plane001__0",
            "primitives" : [
                {
                    "attributes" : {
                        "POSITION" : 8,
                        "NORMAL" : 9,
                        "TEXCOORD_0" : 10
                    },
                    "indices" : 11,
                    "material" : 2
                }
            ]
        }
    ],
    "textures" : [
        {
            "source" : 0
        },
        {
            "source" : 1
        },
        {
            "source" : 2
        },
        {
            "source" : 3
        },
        {
            "source" : 4
        },
        {
            "source" : 5
        },
        {
            "source" : 6
        },
        {
            "source" : 7
        }
    ],
    "images" : [
        {
            "mimeType" : "image/png",
            "name" : "Image_0",
            "uri" : "Image_0.png"
        },
        {
            "mimeType" : "image/png",
            "name" : "Image_1",
            "uri" : "Image_1.png"
        },
        {
            "mimeType" : "image/png",
            "name" : "Image_2",
            "uri" : "Image_2.png"
        },
        {
            "mimeType" : "image/png",
            "name" : "Image_3",
            "uri" : "Image_3.png"
        },
        {
            "mimeType" : "image/png",
            "name" : "Image_4",
            "uri" : "Image_4.png"
        },
        {
            "mimeType" : "image/png",
            "name" : "Image_5",
            "uri" : "Image_5.png"
        },
        {
            "mimeType" : "image/png",
            "name" : "Image_6",
            "uri" : "Image_6.png"
        },
        {
            "mimeType" : "image/png",
            "name" : "Image_7",
            "uri" : "Image_7.png"
        }
    ],
    "accessors" : [
        {
            "bufferView" : 0,
            "componentType" : 5126,
            "count" : 2082,
            "max" : [
                44.977359771728516,
                -2.1686642169952393,
                110.1939468383789
            ],
            "min" : [
                -44.977359771728516,
                -72.23417663574219,
                -98.43214416503906
            ],
            "type" : "VEC3"
        },
        {
            "bufferView" : 1,
            "componentType" : 5126,
            "count" : 2082,
            "type" : "VEC3"
        },
        {
            "bufferView" : 2,
            "componentType" : 5126,
            "count" : 2082,
            "type" : "VEC2"
        },
        {
            "bufferView" : 3,
            "componentType" : 5123,
            "count" : 3525,
            "type" : "SCALAR"
        },
        {
            "bufferView" : 4,
            "componentType" : 5126,
            "count" : 66,
            "max" : [
                36.4100456237793,
                -51.25664520263672,
                11.713659286499023
            ],
            "min" : [
                -36.4100456237793,
                -71.55856323242188,
                -44.25879669189453
            ],
            "type" : "VEC3"
        },
        {
            "bufferView" : 5,
            "componentType" : 5126,
            "count" : 66,
            "type" : "VEC3"
        },
        {
            "bufferView" : 6,
            "componentType" : 5126,
            "count" : 66,
            "type" : "VEC2"
        },
        {
            "bufferView" : 7,
            "componentType" : 5123,
            "count" : 150,
            "type" : "SCALAR"
        },
        {
            "bufferView" : 8,
            "componentType" : 5126,
            "count" : 4,
            "max" : [
                99.79640197753906,
                0,
                148.4019012451172
            ],
            "min" : [
                -99.79640197753906,
                0,
                -148.4019012451172
            ],
            "type" : "VEC3"
        },
        {
            "bufferView" : 9,
            "componentType" : 5126,
            "count" : 4,
            "type" : "VEC3"
        },
        {
            "bufferView" : 10,
            "componentType" : 5126,
            "count" : 4,
            "type" : "VEC2"
        },
        {
            "bufferView" : 11,
            "componentType" : 5123,
            "count" : 6,
            "type" : "SCALAR"
        }
    ],
    "bufferViews" : [
        {
            "buffer" : 0,
            "byteLength" : 24984,
            "byteOffset" : 0
        },
        {
            "buffer" : 0,
            "byteLength" : 24984,
            "byteOffset" : 24984
        },
        {
            "buffer" : 0,
            "byteLength" : 16656,
            "byteOffset" : 49968
        },
        {
            "buffer" : 0,
            "byteLength" : 7050,
            "byteOffset" : 66624
        },
        {
            "buffer" : 0,
            "byteLength" : 792,
            "byteOffset" : 73676
        },
        {
            "buffer" : 0,
            "byteLength" : 792,
            "byteOffset" : 74468
        },
        {
            "buffer" : 0,
            "byteLength" : 528,
            "byteOffset" : 75260
        },
        {
            "buffer" : 0,
            "byteLength" : 300,
            "byteOffset" : 75788
        },
        {
            "buffer" : 0,
            "byteLength" : 48,
            "byteOffset" : 76088
        },
        {
            "buffer" : 0,
            "byteLength" : 48,
            "byteOffset" : 76136
        },
        {
            "buffer" : 0,
            "byteLength" : 32,
            "byteOffset" : 76184
        },
        {
            "buffer" : 0,
            "byteLength" : 12,
            "byteOffset" : 76216
        }
    ],
    "buffers" : [
        {
            "byteLength" : 76228,
            "uri" : "lowres_scene.bin"
        }
    ]
}
