# Blender v2.81 (sub 16) OBJ File: ''
# www.blender.org
mtllib cone.mtl
o Cone
v 7.408934 0.356142 8.539254
v 0.160289 -0.598196 -8.377143
v 0.092660 8.149914 7.842720
v -7.729503 0.840259 8.215023
v -0.413230 -6.953513 8.911558
vt 0.341844 0.471731
vt 0.250000 0.250000
vt 0.383337 0.449553
vt 0.471731 0.158156
vt 0.449553 0.116663
vt 0.158156 0.028269
vt 0.116663 0.050447
vt 0.028269 0.341844
vt 0.050447 0.383337
vt 0.841844 0.471731
vt 0.971731 0.158156
vt 0.658156 0.028269
vt 0.528269 0.341844
vn 0.7015 0.6285 -0.3360
vn -0.6449 0.6715 -0.3649
vn -0.6899 -0.6717 -0.2698
vn 0.6565 -0.7148 -0.2410
vn -0.0191 0.0712 0.9973
usemtl None
s 1
f 1/1/1 2/2/1 3/3/1
f 3/4/2 2/2/2 4/5/2
f 4/6/3 2/2/3 5/7/3
f 5/8/4 2/2/4 1/9/4
f 1/10/5 3/11/5 4/12/5 5/13/5
