# Blender v2.81 (sub 16) OBJ File: ''
# www.blender.org
mtllib sphere.mtl
o Sphere
v -0.162624 1.949983 -2.305465
v -0.552792 0.884490 -2.848444
v 0.290547 -0.542222 -2.950019
v 0.294886 0.296907 -2.994080
v 0.263616 -1.385622 -2.676470
v -0.034026 -2.667236 -1.424057
v -0.304449 -2.949711 -0.530111
v 0.690421 1.916902 -2.233005
v 0.779570 1.175392 -2.658341
v 0.229138 -2.150718 -2.134586
v 0.515476 2.953791 -0.321838
v 1.422874 0.000001 -2.662008
v 1.363180 -0.878624 -2.550330
v 1.599589 0.752942 -2.462546
v 1.219532 -1.918668 -2.005464
v 0.554498 2.701032 -1.287131
v 1.670491 1.925418 -1.651172
v 2.267201 0.927466 -1.775434
v 2.473691 -0.404559 -1.723253
v 2.049924 -1.404977 -1.721422
v 0.919296 -2.680594 -1.082477
v 1.271874 2.522321 -1.066363
v 1.748677 -2.332762 -0.809062
v 2.646228 1.155608 -0.853679
v 2.886016 0.322797 -0.849267
v 2.537336 -1.444293 -0.799567
v 0.278554 -2.998386 -0.228602
v 1.371161 2.691045 -0.141777
v 2.306305 1.925418 -0.444824
v 2.882346 0.879403 0.289059
v 2.991393 -0.298357 -0.290269
v 2.656067 -1.426300 0.252930
v 2.112727 -2.152420 0.023220
v 2.963105 -0.300812 0.595655
v 1.350587 -2.698511 0.264279
v 1.471917 2.522321 0.766979
v 2.156732 1.969205 0.809416
v 2.552323 0.879403 1.370082
v 2.583596 -0.700597 1.468303
v 2.057936 -1.914956 1.099991
v 1.964731 1.491300 1.740300
v 0.961430 2.189996 1.872492
v 2.060448 -0.882478 2.040326
v 1.560490 -1.949986 1.698010
v 1.288427 1.404975 2.346369
v 1.694814 0.379210 2.503810
v 1.121420 -0.311869 2.808162
v 1.149191 -1.491300 2.359698
v 0.364758 -2.959261 0.474006
v 0.762699 2.793074 0.872994
v 0.310612 -2.367477 1.874991
v 0.847685 -2.675136 1.143506
v 0.531455 2.514257 1.589330
v 0.289194 1.444290 2.644572
v 0.237954 0.590163 2.944518
v 0.028109 -0.290324 3.025866
v 0.270103 -1.426298 2.654377
v -0.363471 -2.138411 2.098873
v -1.055625 0.869954 2.719018
v -0.709139 -0.925592 2.789102
v -0.692453 2.029333 2.152957
v -1.443129 -0.273152 2.650882
v -1.115081 -1.535249 2.367894
v 0.193139 2.997639 0.314673
v -0.567175 2.673595 1.314264
v -1.685936 1.426296 2.067921
v -2.049925 -1.404973 1.721424
v -1.077142 -2.368975 1.542198
v -0.446039 -2.784927 1.076835
v -1.636805 2.127912 1.354938
v -2.302276 0.567082 1.863336
v -2.341330 -0.322792 1.889053
v -2.094509 -1.915269 1.028695
v -1.280231 -2.696551 0.503395
v -2.251606 1.916002 0.628914
v -2.479746 1.336518 1.137217
v -2.886016 0.322793 0.849269
v -2.774406 -0.856887 0.863992
v -1.262551 2.704035 0.526664
v -2.619853 -1.491297 0.158697
v -0.515476 2.953791 0.321840
v -2.990911 0.330588 -0.550259
v -2.970650 -0.379761 -0.395558
v -1.890714 -2.355173 0.248830
v -0.537222 -2.949224 0.287152
v -2.628330 1.457640 -0.494277
v -2.674536 -1.155607 -0.760357
v -2.221548 -1.916002 -0.728001
v -0.326716 2.904933 -0.773821
v -1.806323 2.397058 -0.450777
v -2.658731 -0.297151 -1.419174
v -2.081895 -1.474425 -1.626831
v -1.767811 2.136636 -1.181214
v -2.067920 1.426294 -1.685936
v -2.238091 0.346877 -2.003589
v -1.572098 -2.354876 -1.072762
v -0.954283 2.785494 -0.649194
v -1.849424 -0.902622 -2.216573
v -0.943886 1.910184 -2.159142
v -1.470754 0.925595 -2.473627
v -1.123409 -1.982946 -1.980615
v -0.971011 -2.713033 -0.966334
v -0.775853 2.533053 -1.451512
v -1.023703 -0.230997 -2.856008
v -0.782758 -1.426296 -2.550678
vt 0.681915 0.849900
vt 0.702544 0.718280
vt 0.759893 0.725021
vt 0.817453 0.912722
vt 0.734375 1.000000
vt 0.589220 0.937500
vt 0.733010 0.250000
vt 0.635678 0.153690
vt 0.752066 0.155949
vt 0.704602 0.625000
vt 0.657952 0.579735
vt 0.734375 0.533997
vt 0.780670 0.594422
vt 0.671875 0.500000
vt 0.597860 0.459741
vt 0.671875 0.409378
vt 0.624729 0.717498
vt 0.603884 0.599537
vt 0.610005 0.346011
vt 0.564441 0.221968
vt 0.658774 0.286298
vt 0.516713 0.849926
vt 0.547535 0.343092
vt 0.610999 0.812500
vt 0.531041 0.717324
vt 0.549679 0.625000
vt 0.546180 0.532847
vt 0.470609 0.149907
vt 0.515610 0.468779
vt 0.498258 0.250000
vt 0.484345 0.593425
vt 0.648550 0.036605
vt 0.354205 0.062500
vt 0.468726 0.468896
vt 0.484414 0.344178
vt 0.422440 0.427916
vt 0.422131 0.281898
vt 0.443200 0.726295
vt 0.421845 0.593425
vt 0.345815 0.157896
vt 0.423499 0.812500
vt 0.325424 0.750000
vt 0.383271 0.665313
vt 0.345682 0.539273
vt 0.374693 0.406705
vt 0.311197 0.469849
vt 0.364045 0.875000
vt 0.301311 0.812500
vt 0.367662 0.276737
vt 0.320771 0.334687
vt 0.328755 0.653989
vt 0.273843 0.215528
vt 0.266285 0.656908
vt 0.187361 0.125000
vt 0.262818 0.562500
vt 0.251279 0.467960
vt 0.384376 0.962469
vt 0.189866 0.843013
vt 0.200996 0.728959
vt 0.265664 0.344178
vt 0.222730 0.250000
vt 0.211155 0.400476
vt 0.179174 0.327438
vt 0.152656 0.213524
vt 0.081405 0.062500
vt 0.193544 0.586276
vt 0.171188 0.472498
vt 0.203125 0.000000
vt 0.140665 0.655822
vt 0.108282 0.562500
vt 0.092591 0.937500
vt 0.061981 0.851052
vt 0.110052 0.750000
vt 0.110005 0.346012
vt 0.076336 0.284828
vt 0.069711 0.639259
vt 0.046180 0.532847
vt 0.108670 0.467486
vt 0.047645 0.407626
vt 0.045523 0.719815
vt 0.008271 0.334687
vt 0.000000 0.658651
vt 1.000000 0.334687
vt 0.952020 0.282012
vt 0.993047 0.219954
vt 1.000000 0.125000
vt 0.874846 0.146677
vt 1.000000 0.875000
vt 0.984375 0.937500
vt 0.904889 0.875000
vt 0.977641 0.460487
vt 0.955929 0.375000
vt 0.973102 0.548179
vt 0.922041 0.466255
vt 0.953125 1.000000
vt 0.953125 0.000000
vt 0.986986 0.062500
vt 0.833439 0.062500
vt 0.908360 0.218118
vt 0.969434 0.656804
vt 0.906295 0.750000
vt 0.890665 0.655822
vt 0.895113 0.337227
vt 0.883031 0.535689
vt 0.860089 0.404927
vt 0.828251 0.812500
vt 0.962973 0.792731
vt 0.836155 0.599525
vt 0.803797 0.476875
vt 0.834433 0.271304
vt 0.818831 0.710434
vt 0.796915 0.344178
vt 0.734375 0.437500
vt 0.734375 0.348939
vt 0.000000 0.531273
vt 0.000000 0.437500
vt 0.057455 0.149472
vt 0.021359 0.219954
vt 0.000000 0.792731
vn 0.0834 0.7730 -0.6289
vn -0.0165 0.9969 -0.0770
vn 0.1798 -0.8262 -0.5340
vn 0.3159 0.1816 -0.9312
vn 0.0513 0.4650 -0.8838
vn 0.6292 -0.1399 -0.7646
vn 0.5875 0.4362 -0.6816
vn 0.6737 0.0374 -0.7380
vn 0.5742 -0.6612 -0.4828
vn 0.3292 0.9166 -0.2267
vn 0.8222 -0.3491 -0.4496
vn 0.6108 0.7233 -0.3219
vn 0.8725 0.2490 -0.4204
vn 0.8588 0.1136 -0.4996
vn 0.4235 -0.8938 -0.1475
vn 0.9349 -0.1363 -0.3277
vn 0.7365 -0.6518 -0.1809
vn 0.5663 -0.8212 -0.0698
vn 0.8957 0.4376 -0.0793
vn 0.2600 -0.9654 0.0219
vn 0.9966 0.0765 0.0320
vn 0.8293 -0.4567 0.3221
vn 0.7605 -0.6249 0.1765
vn 0.8563 0.4453 0.2614
vn 0.9127 -0.3246 0.2482
vn 0.9087 0.0438 0.4152
vn 0.5130 -0.7987 0.3146
vn 0.5401 0.7041 0.4611
vn 0.7027 0.2788 0.6545
vn 0.7848 0.0539 0.6174
vn 0.5804 -0.1273 0.8044
vn 0.3770 0.8155 0.4391
vn 0.5575 -0.4786 0.6783
vn 0.4953 0.5908 0.6369
vn 0.3195 -0.6742 0.6659
vn 0.4878 -0.3002 0.8197
vn 0.2546 0.5753 0.7773
vn 0.0551 -0.9053 0.4212
vn 0.1959 0.0438 0.9796
vn 0.0224 0.9459 0.3237
vn 0.0537 0.6963 0.7157
vn 0.0397 -0.6363 0.7704
vn -0.0315 -0.3167 0.9480
vn -0.1376 -0.4993 0.8554
vn -0.1210 -0.8527 0.5082
vn -0.0542 -0.9763 0.2094
vn -0.2466 0.0259 0.9688
vn -0.0232 -0.9980 0.0584
vn -0.4291 -0.3024 0.8512
vn -0.3038 -0.6774 0.6700
vn -0.3698 0.4986 0.7840
vn -0.5883 0.2380 0.7728
vn -0.2441 0.9365 0.2517
vn -0.3690 0.7629 0.5309
vn -0.5525 -0.6537 0.5171
vn -0.6563 0.5599 0.5058
vn -0.8673 0.2209 0.4461
vn -0.8709 0.0523 0.4887
vn -0.8145 -0.2966 0.4986
vn -0.8021 -0.4550 0.3868
vn -0.5828 0.7665 0.2698
vn -0.8301 -0.4926 0.2612
vn -0.8863 0.4489 0.1140
vn -0.7621 -0.6466 -0.0326
vn -0.4585 -0.8845 -0.0865
vn -0.3216 0.9467 -0.0187
vn -0.9420 -0.3293 -0.0642
vn -0.8485 -0.5113 -0.1363
vn -0.9504 -0.0918 -0.2970
vn -0.0622 0.9965 -0.0552
vn -0.0728 -0.9971 -0.0202
vn -0.6060 -0.7819 -0.1463
vn -0.2861 -0.9548 -0.0809
vn -0.7382 0.5692 -0.3621
vn -0.8316 -0.3284 -0.4479
vn -0.7402 -0.1174 -0.6621
vn -0.7715 -0.2770 -0.5727
vn -0.4551 0.8154 -0.3578
vn -0.5541 0.0603 -0.8303
vn -0.5209 -0.5010 -0.6911
vn -0.4352 0.7246 -0.5344
vn -0.5416 -0.6495 -0.5337
vn -0.3225 0.4402 -0.8380
vn -0.1569 0.7595 -0.6313
vn -0.1652 -0.6545 -0.7378
vn -0.0567 0.8906 -0.4512
vn 0.0780 0.9652 -0.2496
vn 0.2888 -0.0971 -0.9525
vn 0.0635 0.3255 -0.9434
vn 0.0810 -0.9549 -0.2857
vn 0.2466 -0.3061 -0.9195
vn 0.3131 -0.4743 -0.8228
vn 0.2360 -0.5687 -0.7880
vn 0.4382 0.4908 -0.7531
vn 0.3196 0.1719 -0.9318
vn 0.2574 -0.7846 -0.5640
vn 0.3410 0.7541 -0.5613
vn 0.7477 0.5205 -0.4124
vn 0.6471 -0.2754 -0.7110
vn 0.5256 -0.4506 -0.7216
vn 0.4685 -0.7501 -0.4668
vn 0.7044 0.0816 -0.7051
vn 0.2949 0.9339 -0.2021
vn 0.6904 -0.6087 -0.3910
vn 0.9520 -0.3032 -0.0420
vn 0.3158 -0.9420 -0.1137
vn 0.9217 -0.2246 -0.3163
vn 0.5790 0.7888 -0.2061
vn 0.6359 0.7695 0.0588
vn 0.8102 -0.5805 -0.0815
vn 0.9529 0.2737 -0.1307
vn 0.9914 0.1188 -0.0549
vn 0.2771 0.9582 0.0715
vn 0.8473 0.5246 0.0827
vn 0.6117 -0.7654 0.1999
vn 0.9470 0.1399 0.2891
vn 0.7034 -0.4795 0.5247
vn 0.3705 0.9197 0.1297
vn 0.7690 0.4902 0.4103
vn 0.5455 0.6946 0.4691
vn 0.5031 -0.7797 0.3728
vn 0.2886 -0.9384 0.1900
vn 0.7424 -0.0307 0.6692
vn 0.2273 -0.3014 0.9260
vn 0.3567 0.8364 0.4161
vn 0.6005 0.3484 0.7197
vn 0.3325 -0.7570 0.5625
vn 0.3026 0.2789 0.9114
vn 0.2083 -0.6185 0.7577
vn -0.6100 0.1116 0.7845
vn 0.3069 0.1587 0.9384
vn 0.0543 0.6942 0.7177
vn 0.0611 -0.9339 0.3523
vn 0.0408 0.9266 0.3738
vn -0.0568 0.9616 0.2685
vn -0.0362 0.7951 0.6054
vn -0.1306 -0.5350 0.8347
vn -0.1535 0.4720 0.8682
vn -0.0911 0.3348 0.9379
vn -0.1441 0.1250 0.9816
vn -0.1322 -0.8214 0.5549
vn -0.2471 -0.0733 0.9662
vn -0.5895 -0.2999 0.7501
vn -0.9930 -0.0602 0.1015
vn -0.5030 -0.6196 0.6025
vn -0.4483 0.6524 0.6111
vn -0.4065 0.8259 0.3908
vn -0.5226 -0.7785 0.3477
vn -0.3283 -0.8805 0.3419
vn -0.7216 0.3798 0.5788
vn -0.2544 -0.9406 0.2251
vn -0.9026 -0.0801 0.4231
vn -0.6807 0.6159 0.3966
vn -0.5568 -0.7773 0.2929
vn -0.7629 -0.6278 0.1547
vn -0.9417 0.3234 0.0925
vn -0.9587 -0.2812 0.0429
vn -0.6142 0.7833 0.0957
vn -0.7521 0.6589 -0.0166
vn -0.8592 0.2800 -0.4282
vn -0.3371 -0.9395 -0.0604
vn -0.4236 0.9045 -0.0484
vn -0.2014 0.9764 -0.0782
vn -0.9296 -0.2135 -0.3005
vn -0.7192 0.6416 -0.2667
vn -0.4926 -0.8621 -0.1190
vn -0.6502 -0.6370 -0.4140
vn -0.1976 -0.7884 -0.5825
vn -0.8769 0.1622 -0.4524
vn -0.7936 -0.4882 -0.3631
vn -0.4259 0.8449 -0.3237
vn -0.3745 -0.7783 -0.5040
vn -0.5096 0.4970 -0.7023
vn -0.6545 0.3066 -0.6911
vn -0.5883 -0.0454 -0.8074
vn -0.5157 0.6303 -0.5804
vn -0.4171 -0.3030 -0.8569
vn -0.2405 0.9093 -0.3396
vn -0.4672 -0.4766 -0.7446
vn -0.3669 0.1611 -0.9162
vn -0.1159 -0.9365 -0.3310
vn -0.1210 -0.2829 -0.9515
vn -0.0314 0.8148 -0.5789
vn -0.0757 -0.5740 -0.8153
vn -0.1840 0.4990 -0.8469
vn -0.1280 0.0607 -0.9899
vn -0.0835 -0.0518 -0.9952
usemtl None
s off
f 16/1/1 8/2/1 1/3/1
f 89/4/2 64/5/2 11/6/2
f 10/7/3 21/8/3 6/9/3
f 9/10/4 14/11/4 4/12/4
f 9/10/5 2/13/5 1/3/5 8/2/5
f 12/14/6 19/15/6 13/16/6
f 17/17/7 18/18/7 14/11/7
f 12/14/8 14/11/8 19/15/8
f 20/19/9 23/20/9 15/21/9
f 11/6/10 28/22/10 16/1/10
f 19/15/11 26/23/11 20/19/11
f 22/24/12 29/25/12 17/17/12
f 18/18/13 24/26/13 25/27/13
f 18/18/14 25/27/14 19/15/14
f 23/20/15 35/28/15 21/8/15
f 25/27/16 31/29/16 19/15/16
f 23/20/17 26/23/17 33/30/17
f 23/20/18 33/30/18 35/28/18
f 29/25/19 30/31/19 24/26/19
f 27/32/20 35/28/20 49/33/20
f 30/31/21 34/34/21 31/29/21
f 32/35/22 39/36/22 40/37/22
f 32/35/23 40/37/23 33/30/23
f 37/38/24 38/39/24 30/31/24
f 34/34/25 39/36/25 32/35/25
f 38/39/26 39/36/26 34/34/26
f 35/28/27 40/37/27 52/40/27
f 36/41/28 42/42/28 37/38/28
f 38/39/29 41/43/29 46/44/29
f 38/39/30 46/44/30 39/36/30
f 43/45/31 46/44/31 47/46/31
f 50/47/32 53/48/32 36/41/32
f 44/49/33 43/45/33 48/50/33
f 41/43/34 42/42/34 45/51/34
f 48/50/35 51/52/35 44/49/35
f 47/46/36 48/50/36 43/45/36
f 42/42/37 54/53/37 45/51/37
f 51/52/38 69/54/38 52/40/38
f 55/55/39 56/56/39 47/46/39
f 64/57/40 65/58/40 50/47/40
f 42/42/41 53/48/41 61/59/41
f 57/60/42 58/61/42 51/52/42
f 56/56/43 60/62/43 57/60/43
f 57/60/44 60/62/44 63/63/44
f 58/61/45 68/64/45 51/52/45
f 49/33/46 69/54/46 85/65/46
f 59/66/47 62/67/47 56/56/47
f 27/68/48 49/33/48 85/65/48
f 62/67/49 63/63/49 60/62/49
f 63/63/50 68/64/50 58/61/50
f 61/59/51 66/69/51 59/66/51
f 59/66/52 66/69/52 71/70/52
f 81/71/53 79/72/53 65/58/53
f 61/59/54 65/58/54 70/73/54
f 67/74/55 73/75/55 68/64/55
f 66/69/56 70/73/56 76/76/56
f 71/70/57 76/76/57 77/77/57
f 71/70/58 77/77/58 72/78/58
f 72/78/59 78/79/59 67/74/59
f 67/74/60 78/79/60 73/75/60
f 70/73/61 79/72/61 75/80/61
f 73/75/62 78/79/62 80/81/62
f 75/80/63 86/82/63 76/76/63
f 80/83/64 88/84/64 84/85/64
f 74/86/65 84/85/65 102/87/65
f 79/88/66 81/89/66 97/90/66
f 83/91/67 87/92/67 80/83/67
f 80/83/68 87/92/68 88/84/68
f 82/93/69 91/94/69 83/91/69
f 81/89/70 64/95/70 89/4/70
f 27/96/71 85/97/71 7/98/71
f 88/84/72 96/99/72 84/85/72
f 102/87/73 7/98/73 85/97/73
f 86/100/74 93/101/74 94/102/74
f 91/94/75 92/103/75 87/92/75
f 91/94/76 95/104/76 98/105/76
f 91/94/77 98/105/77 92/103/77
f 97/90/78 103/106/78 90/107/78
f 95/104/79 100/108/79 104/109/79
f 92/103/80 98/105/80 101/110/80
f 103/106/81 99/111/81 93/101/81
f 92/103/82 101/110/82 96/99/82
f 99/111/83 2/13/83 100/108/83
f 103/106/84 1/3/84 99/111/84
f 105/112/85 10/7/85 101/110/85
f 103/106/86 89/4/86 16/1/86
f 89/4/87 11/6/87 16/1/87
f 12/14/88 13/16/88 3/113/88 4/12/88
f 2/13/89 9/10/89 4/12/89
f 27/32/90 7/98/90 6/9/90 21/8/90
f 5/114/91 3/113/91 13/16/91
f 5/114/92 13/16/92 15/21/92
f 10/7/93 5/114/93 15/21/93
f 14/11/94 9/10/94 8/2/94 17/17/94
f 4/12/95 14/11/95 12/14/95
f 10/7/96 15/21/96 21/8/96
f 17/17/97 8/2/97 16/1/97 22/24/97
f 24/26/98 18/18/98 17/17/98 29/25/98
f 13/16/99 19/15/99 20/19/99
f 15/21/100 13/16/100 20/19/100
f 21/8/101 15/21/101 23/20/101
f 19/15/102 14/11/102 18/18/102
f 16/1/103 28/22/103 22/24/103
f 23/20/104 20/19/104 26/23/104
f 32/35/105 26/23/105 31/29/105 34/34/105
f 27/32/106 21/8/106 35/28/106
f 19/15/107 31/29/107 26/23/107
f 29/25/108 22/24/108 28/22/108
f 37/38/109 29/25/109 28/22/109 36/41/109
f 26/23/110 32/35/110 33/30/110
f 25/27/111 24/26/111 30/31/111
f 25/27/112 30/31/112 31/29/112
f 50/47/113 28/22/113 11/6/113 64/57/113
f 29/25/114 37/38/114 30/31/114
f 33/30/115 40/37/115 35/28/115
f 30/31/116 38/39/116 34/34/116
f 44/49/117 40/37/117 39/36/117 43/45/117
f 36/41/118 28/22/118 50/47/118
f 37/38/119 41/43/119 38/39/119
f 37/38/120 42/42/120 41/43/120
f 52/40/121 40/37/121 44/49/121
f 49/33/122 35/28/122 52/40/122
f 39/36/123 46/44/123 43/45/123
f 57/60/124 48/50/124 47/46/124 56/56/124
f 42/42/125 36/41/125 53/48/125
f 46/44/126 41/43/126 45/51/126
f 52/40/127 44/49/127 51/52/127
f 54/53/128 55/55/128 46/44/128 45/51/128
f 48/50/129 57/60/129 51/52/129
f 71/70/130 72/78/130 62/67/130 59/66/130
f 46/44/131 55/55/131 47/46/131
f 42/42/132 61/59/132 54/53/132
f 49/33/133 52/40/133 69/54/133
f 53/48/134 50/47/134 65/58/134
f 64/57/135 81/71/135 65/58/135
f 61/59/136 53/48/136 65/58/136
f 57/60/137 63/63/137 58/61/137
f 54/53/138 61/59/138 59/66/138
f 55/55/139 54/53/139 59/66/139
f 55/55/140 59/66/140 56/56/140
f 69/54/141 51/52/141 68/64/141
f 60/62/142 56/56/142 62/67/142
f 67/74/143 63/63/143 62/67/143 72/78/143
f 82/115/144 83/116/144 78/79/144 77/77/144
f 63/63/145 67/74/145 68/64/145
f 66/69/146 61/59/146 70/73/146
f 70/73/147 65/58/147 79/72/147
f 68/64/148 73/75/148 74/117/148
f 69/54/149 68/64/149 74/117/149
f 71/70/150 66/69/150 76/76/150
f 69/54/151 74/117/151 85/65/151
f 72/78/152 77/77/152 78/79/152
f 76/76/153 70/73/153 75/80/153
f 73/75/154 84/118/154 74/117/154
f 73/75/155 80/81/155 84/118/155
f 86/82/156 82/115/156 77/77/156 76/76/156
f 78/79/157 83/116/157 80/81/157
f 75/80/158 79/72/158 90/119/158
f 75/80/159 90/119/159 86/82/159
f 94/102/160 95/104/160 82/93/160 86/100/160
f 74/86/161 102/87/161 85/97/161
f 79/88/162 97/90/162 90/107/162
f 81/89/163 89/4/163 97/90/163
f 83/91/164 91/94/164 87/92/164
f 90/107/165 93/101/165 86/100/165
f 102/87/166 84/85/166 96/99/166
f 88/84/167 92/103/167 96/99/167
f 6/9/168 102/87/168 101/110/168 10/7/168
f 82/93/169 95/104/169 91/94/169
f 88/84/170 87/92/170 92/103/170
f 90/107/171 103/106/171 93/101/171
f 102/87/172 96/99/172 101/110/172
f 94/102/173 99/111/173 100/108/173
f 95/104/174 94/102/174 100/108/174
f 95/104/175 104/109/175 98/105/175
f 94/102/176 93/101/176 99/111/176
f 98/105/177 104/109/177 105/112/177
f 103/106/178 97/90/178 89/4/178
f 101/110/179 98/105/179 105/112/179
f 100/108/180 2/13/180 104/109/180
f 7/98/181 102/87/181 6/9/181
f 5/114/182 105/112/182 104/109/182 3/113/182
f 1/3/183 103/106/183 16/1/183
f 105/112/184 5/114/184 10/7/184
f 2/13/185 99/111/185 1/3/185
f 104/109/186 2/13/186 4/12/186
f 104/109/187 4/12/187 3/113/187
